<svg width="600" height="600" viewBox="0 0 600 600" fill="none" xmlns="http://www.w3.org/2000/svg">
<rect width="600" height="600" fill="black"/>
<path d="M333.486 150C391.59 150 426.145 184.556 426.145 230.427C426.145 276.299 391.59 310.854 333.486 310.854H304.127L450 450H346.941L235.931 344.495C227.981 337.156 224.312 328.594 224.312 321.255C224.312 310.857 231.653 301.683 245.72 297.708L302.904 282.415C324.617 276.604 339.602 259.784 339.602 237.766C339.601 210.856 317.582 195.26 290.365 195.26H150V150H333.486Z" fill="url(#paint0_linear_957_392)"/>
<path d="M426.145 230.427C426.145 184.556 391.59 150 333.486 150V146.25C363.278 146.25 387.398 155.118 404.117 170.229C420.337 184.889 429.324 205.191 429.869 228.193L429.895 230.427C429.895 254.348 420.86 275.492 404.117 290.625C387.921 305.264 364.778 314.044 336.262 314.579L333.486 314.604H313.491L459.364 453.75H345.443L344.359 452.717L233.386 347.245C224.816 339.333 220.562 329.825 220.562 321.255C220.562 308.743 229.482 298.402 244.702 294.1L244.75 294.086L301.934 278.793C322.285 273.347 335.852 257.815 335.852 237.766C335.852 225.436 330.851 215.876 322.819 209.326C314.709 202.715 303.291 199.01 290.365 199.01H146.25V146.25H333.486V150H150V195.26H290.365C317.582 195.26 339.601 210.856 339.602 237.766C339.602 259.784 324.617 276.604 302.904 282.415L245.72 297.708C231.653 301.683 224.312 310.857 224.312 321.255C224.312 328.594 227.981 337.156 235.931 344.495L346.941 450H450L304.127 310.854H333.486C391.59 310.854 426.145 276.299 426.145 230.427Z" fill="url(#paint1_linear_957_392)"/>
<defs>
<linearGradient id="paint0_linear_957_392" x1="300" y1="150" x2="300" y2="450" gradientUnits="userSpaceOnUse">
<stop stop-color="#FDFDFD"/>
<stop offset="1" stop-color="#52595B"/>
</linearGradient>
<linearGradient id="paint1_linear_957_392" x1="302.807" y1="146.25" x2="302.807" y2="453.75" gradientUnits="userSpaceOnUse">
<stop stop-color="#F0F0F0"/>
<stop offset="1" stop-color="#A1A4A5"/>
</linearGradient>
</defs>
</svg>
